<?xml version="1.0" standalone="no"?>
<svg version="1.0" xmlns="http://www.w3.org/2000/svg"
 width="500.000000pt" height="500.000000pt" viewBox="0 0 500.000000 500.000000"
 preserveAspectRatio="xMidYMid meet">
<g transform="translate(0.000000,500.000000) scale(0.100000,-0.100000)"
fill="#000000" stroke="none">
<path d="M3936 3633 c-118 -136 -178 -182 -367 -280 -25 -13 -99 -35 -166 -48
-135 -27 -222 -54 -297 -93 -28 -14 -56 -27 -61 -28 -29 -5 -224 -143 -330
-234 -166 -142 -205 -180 -202 -202 3 -16 61 -68 77 -68 3 0 26 19 50 42 326
303 521 417 802 468 111 20 178 47 305 122 112 66 167 114 264 226 84 98 100
122 81 122 -5 0 -22 13 -38 30 -16 16 -32 30 -36 30 -3 0 -40 -39 -82 -87z"/>
<path d="M896 3697 c-8 -7 -18 -33 -21 -59 l-7 -47 48 -14 c54 -16 300 -115
360 -144 154 -75 341 -225 420 -336 63 -88 125 -147 219 -208 50 -32 87 -59
84 -59 -18 0 -164 67 -234 107 -140 81 -259 187 -333 294 -40 60 -103 110
-227 186 -110 66 -176 93 -308 123 -123 28 -132 27 -135 -12 -1 -18 -5 -41 -8
-50 -5 -18 10 -24 145 -54 113 -25 183 -59 354 -172 21 -14 69 -64 106 -111
177 -222 334 -322 729 -467 127 -46 138 -46 146 11 4 25 12 45 17 45 6 0 47
-9 91 -21 44 -11 82 -19 84 -17 1 2 5 17 8 33 3 17 8 42 11 56 6 27 5 27 -107
54 -147 35 -221 66 -343 147 -104 69 -133 95 -204 190 -53 71 -226 238 -246
238 -8 0 -15 4 -15 9 0 18 -210 132 -345 186 -217 88 -271 105 -289 92z"/>
<path d="M599 3428 c0 -13 -2 -37 -4 -54 l-4 -31 102 -23 c181 -40 289 -85
468 -196 77 -48 93 -63 125 -117 54 -94 94 -138 191 -211 126 -95 334 -192
541 -252 117 -33 142 -27 142 36 0 23 -4 39 -9 36 -5 -4 -11 -2 -13 4 -2 6
-13 12 -24 14 -42 8 -161 48 -249 82 -220 87 -391 203 -455 308 -64 105 -88
134 -142 168 -214 138 -345 197 -531 237 -124 27 -137 27 -138 -1z"/>
<path d="M4105 3395 c-144 -17 -205 -35 -354 -107 -113 -55 -132 -68 -230
-162 -120 -115 -203 -173 -341 -234 -83 -37 -274 -94 -438 -132 l-53 -12 3
-52 3 -51 35 3 c37 3 226 49 345 84 89 26 281 118 359 171 33 22 105 84 161
137 87 83 114 103 209 149 136 66 175 78 322 96 64 8 118 16 118 17 8 12 -8
108 -17 107 -7 -1 -61 -7 -122 -14z"/>
<path d="M4240 3265 c-58 -7 -126 -18 -152 -24 -73 -17 -234 -78 -344 -130
-82 -39 -108 -57 -140 -97 -112 -140 -222 -220 -384 -278 -94 -34 -263 -80
-355 -96 -98 -17 -115 -27 -115 -65 0 -59 35 -67 170 -40 254 53 423 115 568
210 88 57 110 77 171 156 43 56 63 72 126 103 179 87 349 139 500 151 116 9
111 6 105 67 -6 63 -2 62 -150 43z"/>
<path d="M399 2953 c-14 -37 -23 -83 -16 -83 3 0 90 -24 194 -54 385 -111 877
-285 1572 -555 129 -50 235 -90 236 -89 0 2 9 30 19 63 10 33 20 65 23 71 2 6
-31 22 -74 36 -43 15 -181 63 -308 108 -126 45 -310 106 -410 136 -99 30 -240
73 -314 96 -74 22 -307 98 -520 169 -212 71 -387 129 -389 129 -1 0 -7 -12
-13 -27z"/>
<path d="M4320 2766 c-341 -87 -596 -149 -795 -191 -145 -31 -389 -92 -895
-221 -58 -15 -109 -30 -114 -35 -5 -4 -1 -38 9 -77 l17 -70 51 15 c29 8 162
47 297 88 663 198 1136 323 1540 406 107 22 195 41 197 42 1 2 -4 25 -11 52
-9 37 -17 50 -32 52 -10 1 -129 -27 -264 -61z"/>
<path d="M1628 2163 l-218 -3 0 -79 0 -78 68 3 c757 43 1232 57 1673 50 l387
-6 1 55 0 55 -458 0 c-252 0 -633 2 -847 3 -214 2 -487 2 -606 0z"/>
<path d="M3340 1969 c-559 -34 -831 -42 -1352 -43 l-558 0 0 -52 0 -52 748 -4
c411 -2 890 -2 1065 0 l317 4 0 79 0 79 -47 -1 c-27 -1 -104 -5 -173 -10z"/>
</g>
</svg>
